<?xml version="1.0" encoding="UTF-8"?>
<svg id="Ebene_2" data-name="Ebene 2" xmlns="http://www.w3.org/2000/svg" viewBox="0 0 415.38 140.18">
  <defs>
    <style>
      .cls-1 {
        fill: #fff;
      }

      .cls-2 {
        fill: #c33531;
      }
    </style>
  </defs>
  <g id="Ebene_1-2" data-name="Ebene 1">
    <g>
      <path class="cls-1" d="M141.27,100.11l24.29-66.74c8.19-22.51-17.97-41.84-37.08-27.41L3.83,100.11h30.42L135.67,22.83c5.56-4.23,13.2,1.39,10.82,7.96l-25.23,69.32h20.02Z"/>
      <path class="cls-1" d="M373.91,0h-58.86c-15.15,0-28.67,9.47-33.85,23.71l-15.1,41.48c-6.18,16.97,6.39,34.92,24.45,34.92,0,0,119.01-.03,119.01-.03l5.82-15.98s-121.81,0-121.81,0c-6.97,0-11.81-6.92-9.43-13.47l4.57-12.55s0-.01.02-.01h60.05s5.84-16.02,5.83-16.02h-60.04s0-.01-.02-.02l5.63-15.47c2.3-6.33,8.32-10.54,15.05-10.54h52.86S373.93,0,373.91,0Z"/>
      <path class="cls-1" d="M269.98,16.02l5.83-16.02h-58.88c-15.15,0-28.68,9.48-33.86,23.71l-15.09,41.46c-6.18,16.98,6.39,34.93,24.46,34.93h53.95s5.83-16.02,5.83-16.02h-56.81c-6.95,0-11.78-6.9-9.4-13.43l15.09-41.47c2.88-7.91,10.39-13.17,18.81-13.17h50.08Z"/>
      <g>
        <path class="cls-1" d="M9.09,140.18c-2.08,0-3.76-.28-5.05-.84-1.29-.56-2.26-1.34-2.91-2.34-.65-1-1.02-2.12-1.13-3.37h2.48c.06,1.02.4,1.84,1.02,2.46.61.62,1.42,1.09,2.43,1.38,1.01.3,2.11.45,3.32.45,1.78,0,3.19-.31,4.23-.94,1.04-.62,1.56-1.55,1.56-2.78,0-.74-.26-1.34-.78-1.8-.52-.46-1.21-.83-2.07-1.13-.86-.3-1.8-.57-2.81-.81-1.02-.24-2.04-.5-3.07-.78-1.03-.28-1.97-.62-2.83-1.05-.86-.42-1.55-.97-2.07-1.64-.52-.67-.78-1.52-.78-2.56,0-1.72.66-3.12,1.99-4.2,1.32-1.08,3.3-1.62,5.93-1.62,1.86,0,3.4.28,4.61.84,1.21.56,2.11,1.3,2.72,2.21.6.91.94,1.9,1,2.96h-2.45c-.13-1.06-.66-1.95-1.59-2.69-.93-.73-2.36-1.1-4.29-1.1-1.19,0-2.15.12-2.89.35-.74.23-1.31.54-1.7.91-.39.37-.66.76-.79,1.16-.14.4-.21.78-.21,1.14,0,.7.26,1.27.78,1.7.52.43,1.21.79,2.07,1.08.86.29,1.81.55,2.84.78,1.04.23,2.07.49,3.1.78,1.03.29,1.97.65,2.83,1.08.86.43,1.55.99,2.07,1.67.52.68.78,1.55.78,2.61,0,1.95-.74,3.45-2.23,4.5-1.48,1.05-3.52,1.57-6.1,1.57Z"/>
        <path class="cls-1" d="M43.8,140.18c-1.59,0-3.04-.27-4.35-.83-1.31-.55-2.44-1.32-3.38-2.32-.94-1-1.67-2.15-2.18-3.45-.51-1.3-.76-2.7-.76-4.18s.25-2.9.76-4.2c.51-1.29,1.23-2.44,2.18-3.43.94-1,2.07-1.77,3.38-2.32,1.31-.55,2.77-.83,4.35-.83s3.04.28,4.35.83c1.31.55,2.44,1.32,3.39,2.32.94,1,1.67,2.14,2.18,3.43.51,1.29.76,2.69.76,4.2s-.25,2.88-.76,4.18c-.51,1.3-1.23,2.45-2.18,3.45-.94,1-2.07,1.77-3.39,2.32-1.31.55-2.77.83-4.35.83ZM43.8,137.86c1.72,0,3.19-.38,4.43-1.13,1.24-.75,2.19-1.77,2.86-3.05s1-2.71,1-4.28-.33-3.02-1-4.29c-.67-1.27-1.62-2.28-2.86-3.04-1.24-.75-2.72-1.13-4.43-1.13s-3.17.38-4.42,1.13c-1.25.75-2.21,1.76-2.88,3.04-.67,1.27-1,2.7-1,4.29s.33,2.99,1,4.28,1.63,2.3,2.88,3.05c1.25.75,2.72,1.13,4.42,1.13Z"/>
        <path class="cls-1" d="M71.64,139.92v-21.04h2.38v18.75h11.47v2.29h-13.86Z"/>
        <path class="cls-1" d="M99.45,139.92l8.93-21.04h2.99l8.93,21.04h-2.64l-2.57-6.1h-10.43l-2.57,6.1h-2.64ZM105.58,131.63h8.58l-4.29-10.27-4.29,10.27Z"/>
        <path class="cls-1" d="M136.32,139.92v-21.04h10.08c2.16,0,3.88.59,5.16,1.78,1.28,1.19,1.92,2.79,1.92,4.8,0,1.36-.26,2.44-.78,3.24-.52.81-1.17,1.41-1.96,1.83-.78.41-1.57.71-2.35.91l5.53,8.49h-2.83l-5.08-8.07h-7.31v8.07h-2.38ZM138.7,129.59h7.28c.76,0,1.54-.12,2.32-.35.78-.23,1.45-.65,1.99-1.25.54-.6.81-1.45.81-2.53,0-1.33-.46-2.39-1.37-3.16-.91-.77-2.12-1.16-3.62-1.16h-7.41v8.45Z"/>
        <path class="cls-1" d="M231.29,139.92v-21.04h10.08c2.16,0,3.88.59,5.17,1.78s1.92,2.79,1.92,4.8c0,1.36-.26,2.44-.78,3.24-.52.81-1.17,1.41-1.96,1.83-.78.41-1.57.71-2.35.91l5.53,8.49h-2.83l-5.08-8.07h-7.31v8.07h-2.38ZM233.67,129.59h7.28c.76,0,1.54-.12,2.32-.35.78-.23,1.45-.65,1.99-1.25.54-.6.81-1.45.81-2.53,0-1.33-.46-2.39-1.37-3.16-.91-.77-2.12-1.16-3.62-1.16h-7.41v8.45Z"/>
        <path class="cls-1" d="M263.42,139.92l8.93-21.04h2.99l8.93,21.04h-2.64l-2.58-6.1h-10.42l-2.57,6.1h-2.64ZM269.55,131.63h8.58l-4.29-10.27-4.29,10.27Z"/>
        <path class="cls-1" d="M308.71,140.18c-2.1,0-3.91-.48-5.43-1.45-1.53-.96-2.7-2.26-3.51-3.89s-1.22-3.44-1.22-5.44.41-3.8,1.22-5.43,1.99-2.93,3.51-3.89c1.53-.96,3.34-1.45,5.43-1.45,1.59,0,3.02.28,4.29.84,1.27.56,2.35,1.33,3.24,2.3.89.97,1.56,2.11,2,3.4h-2.51c-.53-1.29-1.37-2.32-2.51-3.08-1.14-.76-2.59-1.14-4.32-1.14s-3.14.38-4.34,1.13c-1.2.75-2.1,1.76-2.72,3.04-.61,1.27-.92,2.7-.92,4.29s.31,2.99.92,4.28,1.52,2.3,2.72,3.05c1.2.75,2.64,1.13,4.34,1.13s3.18-.38,4.32-1.14c1.14-.76,1.98-1.79,2.51-3.08h2.51c-.45,1.27-1.11,2.4-2,3.38-.89.99-1.97,1.76-3.24,2.32s-2.7.84-4.29.84Z"/>
        <path class="cls-1" d="M335.15,139.92v-21.04h2.38v21.04h-2.38Z"/>
        <path class="cls-1" d="M356.04,139.92v-21.04h2.77l13,17.7v-17.7h2.38v21.04h-2.76l-13-17.77v17.77h-2.38Z"/>
        <path class="cls-1" d="M401.64,140.18c-2.14,0-3.98-.48-5.51-1.45-1.54-.96-2.72-2.26-3.54-3.89-.83-1.63-1.24-3.44-1.24-5.44s.42-3.8,1.27-5.43,2.05-2.93,3.61-3.89,3.38-1.45,5.48-1.45c2.27,0,4.23.56,5.9,1.67,1.66,1.11,2.89,2.55,3.67,4.31h-2.61c-.64-1.12-1.52-2.01-2.65-2.67-1.13-.66-2.51-.99-4.12-.99-1.7,0-3.16.38-4.39,1.13-1.23.75-2.17,1.76-2.81,3.04-.65,1.27-.97,2.7-.97,4.29s.32,2.99.95,4.28,1.56,2.3,2.78,3.05c1.22.75,2.67,1.13,4.37,1.13,1.27,0,2.47-.27,3.61-.83,1.13-.55,2.05-1.34,2.76-2.38.71-1.04,1.06-2.29,1.06-3.75h-7.69v-2.16h9.88v11.19h-2.19v-3.72c-.44.68-1.02,1.32-1.72,1.92-.7.6-1.54,1.1-2.53,1.48-.98.38-2.11.57-3.38.57Z"/>
      </g>
      <rect class="cls-2" x="181.68" y="118.89" width="21" height="21"/>
      <polygon class="cls-1" points="199.19 127.29 194.29 127.29 194.29 122.39 190.08 122.39 190.08 127.29 185.18 127.29 185.18 131.49 190.08 131.49 190.08 136.39 194.29 136.39 194.29 131.49 199.19 131.49 199.19 127.29"/>
    </g>
  </g>
</svg>